<svg xmlns="http://www.w3.org/2000/svg" xmlns:xlink="http://www.w3.org/1999/xlink" width="500" zoomAndPan="magnify" viewBox="0 0 375 374.999991" height="500" preserveAspectRatio="xMidYMid meet" version="1.0"><defs><g/><clipPath id="963c26f046"><rect x="0" width="313" y="0" height="168"/></clipPath><clipPath id="6236f2205f"><rect x="0" width="254" y="0" height="35"/></clipPath></defs><rect x="-37.5" width="450" fill="#ffffff" y="-37.499999" height="449.999989" fill-opacity="1"/><rect x="-37.5" width="450" fill="#080a0e" y="-37.499999" height="449.999989" fill-opacity="1"/><g transform="matrix(1, 0, 0, 1, 30, 90)"><g clip-path="url(#963c26f046)"><g fill="#ffffff" fill-opacity="1"><g transform="translate(0.775424, 126.385031)"><g><path d="M 45.363281 -45.707031 L 38.429688 -18.988281 L 31.492188 -45.707031 L 20.691406 -80.953125 L 2.84375 -80.953125 L 30.242188 0 L 46.160156 0 L 73.675781 -80.953125 L 55.824219 -80.953125 Z M 45.363281 -45.707031 "/></g></g></g><g fill="#ffffff" fill-opacity="1"><g transform="translate(73.872822, 126.385031)"><g><path d="M 24.21875 0 L 24.21875 -80.953125 L 7.390625 -80.953125 L 7.390625 0 Z M 24.21875 0 "/></g></g></g><g fill="#ffffff" fill-opacity="1"><g transform="translate(102.065623, 126.385031)"><g><path d="M 72.199219 -80.953125 L 8.074219 -80.953125 L 8.074219 -66.625 L 33.539062 -66.625 C 39.339844 -66.625 45.023438 -66.625 50.707031 -66.96875 C 46.5 -62.417969 43.320312 -58.78125 40.136719 -54.914062 L 5.230469 -13.074219 L 5.230469 0 L 72.199219 0 L 72.199219 -14.324219 L 43.886719 -14.324219 C 38.089844 -14.324219 32.402344 -14.324219 26.605469 -13.984375 C 31.265625 -18.875 34.675781 -22.851562 38.203125 -27.058594 L 72.199219 -67.875 Z M 72.199219 -80.953125 "/></g></g></g><g fill="#ffffff" fill-opacity="1"><g transform="translate(176.072474, 126.385031)"><g><path d="M 24.21875 0 L 24.21875 -80.953125 L 7.390625 -80.953125 L 7.390625 0 Z M 24.21875 0 "/></g></g></g><g fill="#ffffff" fill-opacity="1"><g transform="translate(204.265275, 126.385031)"><g><path d="M 24.21875 0 L 24.21875 -80.953125 L 7.390625 -80.953125 L 7.390625 0 Z M 24.21875 0 "/></g></g></g><g fill="#ffffff" fill-opacity="1"><g transform="translate(232.458077, 126.385031)"><g><path d="M 78.90625 0 L 50.9375 -80.953125 L 31.492188 -80.953125 L 2.84375 0 L 20.691406 0 L 26.148438 -16.828125 L 55.484375 -16.828125 L 60.941406 0 Z M 33.996094 -40.703125 L 40.929688 -64.011719 L 47.753906 -40.703125 L 51.050781 -30.699219 L 30.699219 -30.699219 Z M 33.996094 -40.703125 "/></g></g></g></g></g><g transform="matrix(1, 0, 0, 1, 60, 224)"><g clip-path="url(#6236f2205f)"><g fill="#ffffff" fill-opacity="1"><g transform="translate(1.38757, 26.348006)"><g><path d="M 7.816406 -15.992188 L 1.460938 -15.992188 L 1.460938 0 L 4.785156 0 L 4.785156 -5.570312 L 7.523438 -5.570312 C 11.363281 -5.570312 13.386719 -7.589844 13.386719 -10.847656 C 13.386719 -14.058594 11.273438 -15.992188 7.816406 -15.992188 Z M 4.785156 -8.378906 L 4.785156 -13.183594 L 7.570312 -13.183594 C 9.097656 -13.183594 10.175781 -12.375 10.175781 -10.804688 C 10.175781 -9.277344 9.1875 -8.378906 7.230469 -8.378906 Z M 4.785156 -8.378906 "/></g></g></g><g fill="#ffffff" fill-opacity="1"><g transform="translate(14.765997, 26.348006)"><g><path d="M 11.027344 -9.816406 L 4.785156 -9.816406 L 4.785156 -15.992188 L 1.460938 -15.992188 L 1.460938 0 L 4.785156 0 L 4.785156 -6.851562 L 11.027344 -6.851562 L 11.027344 0 L 14.351562 0 L 14.351562 -15.992188 L 11.027344 -15.992188 Z M 11.027344 -9.816406 "/></g></g></g><g fill="#ffffff" fill-opacity="1"><g transform="translate(30.232033, 26.348006)"><g><path d="M 8.332031 0.515625 C 12.601562 0.515625 15.96875 -2.828125 15.96875 -8.019531 C 15.96875 -13.183594 12.601562 -16.375 8.332031 -16.375 C 4.066406 -16.375 0.785156 -13.183594 0.785156 -8.019531 C 0.785156 -2.808594 4.066406 0.515625 8.332031 0.515625 Z M 8.332031 -2.359375 C 5.703125 -2.359375 4.109375 -4.625 4.109375 -8.019531 C 4.109375 -11.273438 5.703125 -13.5 8.332031 -13.5 C 10.960938 -13.5 12.644531 -11.296875 12.644531 -8.019531 C 12.644531 -4.625 10.960938 -2.359375 8.332031 -2.359375 Z M 8.332031 -2.359375 "/></g></g></g><g fill="#ffffff" fill-opacity="1"><g transform="translate(46.191631, 26.348006)"><g><path d="M 0.449219 -15.992188 L 0.449219 -13.027344 L 5.253906 -13.027344 L 5.253906 0 L 8.578125 0 L 8.578125 -13.027344 L 13.363281 -13.027344 L 13.363281 -15.992188 Z M 0.449219 -15.992188 "/></g></g></g><g fill="#ffffff" fill-opacity="1"><g transform="translate(59.210632, 26.348006)"><g><path d="M 8.332031 0.515625 C 12.601562 0.515625 15.96875 -2.828125 15.96875 -8.019531 C 15.96875 -13.183594 12.601562 -16.375 8.332031 -16.375 C 4.066406 -16.375 0.785156 -13.183594 0.785156 -8.019531 C 0.785156 -2.808594 4.066406 0.515625 8.332031 0.515625 Z M 8.332031 -2.359375 C 5.703125 -2.359375 4.109375 -4.625 4.109375 -8.019531 C 4.109375 -11.273438 5.703125 -13.5 8.332031 -13.5 C 10.960938 -13.5 12.644531 -11.296875 12.644531 -8.019531 C 12.644531 -4.625 10.960938 -2.359375 8.332031 -2.359375 Z M 8.332031 -2.359375 "/></g></g></g><g fill="#ffffff" fill-opacity="1"><g transform="translate(75.619452, 26.348006)"><g><path d="M 7.660156 0.515625 C 11.613281 0.515625 14.015625 -1.414062 14.015625 -4.515625 C 14.015625 -7.1875 12.152344 -8.511719 9.65625 -9.117188 L 6.46875 -9.90625 C 5.234375 -10.21875 4.605469 -10.824219 4.605469 -11.703125 C 4.605469 -12.78125 5.546875 -13.632812 7.253906 -13.632812 C 9.007812 -13.632812 10.308594 -12.710938 10.511719 -11.09375 L 13.746094 -11.09375 C 13.542969 -14.238281 11.09375 -16.351562 7.230469 -16.351562 C 3.121094 -16.351562 1.257812 -13.902344 1.257812 -11.34375 C 1.257812 -9.097656 2.695312 -7.523438 5.1875 -6.894531 L 8.128906 -6.152344 C 9.65625 -5.773438 10.578125 -5.34375 10.578125 -4.199219 C 10.578125 -2.941406 9.457031 -2.199219 7.636719 -2.199219 C 5.523438 -2.199219 4.222656 -3.1875 4.132812 -4.964844 L 0.875 -4.964844 C 0.964844 -1.503906 3.59375 0.515625 7.660156 0.515625 Z M 7.660156 0.515625 "/></g></g></g><g fill="#ffffff" fill-opacity="1"><g transform="translate(90.165138, 26.348006)"><g><path d="M 11.027344 -9.816406 L 4.785156 -9.816406 L 4.785156 -15.992188 L 1.460938 -15.992188 L 1.460938 0 L 4.785156 0 L 4.785156 -6.851562 L 11.027344 -6.851562 L 11.027344 0 L 14.351562 0 L 14.351562 -15.992188 L 11.027344 -15.992188 Z M 11.027344 -9.816406 "/></g></g></g><g fill="#ffffff" fill-opacity="1"><g transform="translate(105.631174, 26.348006)"><g><path d="M 8.332031 0.515625 C 12.601562 0.515625 15.96875 -2.828125 15.96875 -8.019531 C 15.96875 -13.183594 12.601562 -16.375 8.332031 -16.375 C 4.066406 -16.375 0.785156 -13.183594 0.785156 -8.019531 C 0.785156 -2.808594 4.066406 0.515625 8.332031 0.515625 Z M 8.332031 -2.359375 C 5.703125 -2.359375 4.109375 -4.625 4.109375 -8.019531 C 4.109375 -11.273438 5.703125 -13.5 8.332031 -13.5 C 10.960938 -13.5 12.644531 -11.296875 12.644531 -8.019531 C 12.644531 -4.625 10.960938 -2.359375 8.332031 -2.359375 Z M 8.332031 -2.359375 "/></g></g></g><g fill="#ffffff" fill-opacity="1"><g transform="translate(122.039994, 26.348006)"><g><path d="M 8.332031 0.515625 C 12.601562 0.515625 15.96875 -2.828125 15.96875 -8.019531 C 15.96875 -13.183594 12.601562 -16.375 8.332031 -16.375 C 4.066406 -16.375 0.785156 -13.183594 0.785156 -8.019531 C 0.785156 -2.808594 4.066406 0.515625 8.332031 0.515625 Z M 8.332031 -2.359375 C 5.703125 -2.359375 4.109375 -4.625 4.109375 -8.019531 C 4.109375 -11.273438 5.703125 -13.5 8.332031 -13.5 C 10.960938 -13.5 12.644531 -11.296875 12.644531 -8.019531 C 12.644531 -4.625 10.960938 -2.359375 8.332031 -2.359375 Z M 8.332031 -2.359375 "/></g></g></g><g fill="#ffffff" fill-opacity="1"><g transform="translate(137.999592, 26.348006)"><g><path d="M 0.449219 -15.992188 L 0.449219 -13.027344 L 5.253906 -13.027344 L 5.253906 0 L 8.578125 0 L 8.578125 -13.027344 L 13.363281 -13.027344 L 13.363281 -15.992188 Z M 0.449219 -15.992188 "/></g></g></g><g fill="#ffffff" fill-opacity="1"><g transform="translate(151.467815, 26.348006)"><g/></g></g><g fill="#ffffff" fill-opacity="1"><g transform="translate(156.742745, 26.348006)"><g><path d="M 12.757812 -15.992188 L 1.460938 -15.992188 L 1.460938 0 L 4.785156 0 L 4.785156 -6.625 L 11.746094 -6.625 L 11.746094 -9.589844 L 4.785156 -9.589844 L 4.785156 -13.027344 L 12.757812 -13.027344 Z M 12.757812 -15.992188 "/></g></g></g><g fill="#ffffff" fill-opacity="1"><g transform="translate(169.268169, 26.348006)"><g><path d="M 8.332031 0.515625 C 12.601562 0.515625 15.96875 -2.828125 15.96875 -8.019531 C 15.96875 -13.183594 12.601562 -16.375 8.332031 -16.375 C 4.066406 -16.375 0.785156 -13.183594 0.785156 -8.019531 C 0.785156 -2.808594 4.066406 0.515625 8.332031 0.515625 Z M 8.332031 -2.359375 C 5.703125 -2.359375 4.109375 -4.625 4.109375 -8.019531 C 4.109375 -11.273438 5.703125 -13.5 8.332031 -13.5 C 10.960938 -13.5 12.644531 -11.296875 12.644531 -8.019531 C 12.644531 -4.625 10.960938 -2.359375 8.332031 -2.359375 Z M 8.332031 -2.359375 "/></g></g></g><g fill="#ffffff" fill-opacity="1"><g transform="translate(185.676989, 26.348006)"><g><path d="M 10.914062 -7.679688 C 12.960938 -8.21875 13.96875 -9.546875 13.96875 -11.589844 C 13.96875 -13.859375 12.734375 -15.992188 8.917969 -15.992188 L 1.460938 -15.992188 L 1.460938 0 L 4.785156 0 L 4.785156 -6.199219 L 7.726562 -6.199219 C 9.457031 -6.199219 10.015625 -5.480469 10.152344 -4.109375 L 10.535156 0 L 13.949219 0 L 13.296875 -5.074219 C 13.160156 -6.132812 12.78125 -7.300781 10.914062 -7.679688 Z M 4.785156 -13.207031 L 8.421875 -13.207031 C 10.0625 -13.207031 10.714844 -12.308594 10.714844 -11.140625 C 10.714844 -9.90625 9.972656 -8.894531 7.972656 -8.894531 L 4.785156 -8.894531 Z M 4.785156 -13.207031 "/></g></g></g><g fill="#ffffff" fill-opacity="1"><g transform="translate(200.536946, 26.348006)"><g/></g></g><g fill="#ffffff" fill-opacity="1"><g transform="translate(205.811876, 26.348006)"><g><path d="M 15.585938 0 L 10.0625 -15.992188 L 6.222656 -15.992188 L 0.5625 0 L 4.085938 0 L 5.164062 -3.324219 L 10.960938 -3.324219 L 12.039062 0 Z M 6.714844 -8.039062 L 8.085938 -12.644531 L 9.433594 -8.039062 L 10.085938 -6.0625 L 6.0625 -6.0625 Z M 6.714844 -8.039062 "/></g></g></g><g fill="#ffffff" fill-opacity="1"><g transform="translate(221.390014, 26.348006)"><g><path d="M 4.785156 -15.992188 L 1.460938 -15.992188 L 1.460938 0 L 12.578125 0 L 12.578125 -2.964844 L 4.785156 -2.964844 Z M 4.785156 -15.992188 "/></g></g></g><g fill="#ffffff" fill-opacity="1"><g transform="translate(233.960336, 26.348006)"><g><path d="M 4.785156 -15.992188 L 1.460938 -15.992188 L 1.460938 0 L 12.578125 0 L 12.578125 -2.964844 L 4.785156 -2.964844 Z M 4.785156 -15.992188 "/></g></g></g><g fill="#ffffff" fill-opacity="1"><g transform="translate(247.204483, 26.348006)"><g><path d="M 5.054688 0 L 5.054688 -3.367188 L 1.347656 -3.367188 L 1.347656 0 Z M 5.054688 0 "/></g></g></g></g></g></svg>